<?xml version="1.0" encoding="UTF-8" standalone="no"?>
<!DOCTYPE svg PUBLIC "-//W3C//DTD SVG 1.0//EN" "http://www.w3.org/TR/2001/REC-SVG-20010904/DTD/svg10.dtd">
<!-- Создано Microsoft Visio 11.0, Экспорт SVG, версия 1.0 brick2.svg Страница-1 -->
<svg xmlns="http://www.w3.org/2000/svg" xmlns:xlink="http://www.w3.org/1999/xlink" xmlns:ev="http://www.w3.org/2001/xml-events"
		xmlns:v="http://schemas.microsoft.com/visio/2003/SVGExtensions/" width="2.36888in" height="2.36888in"
		viewBox="0 0 170.56 170.56" xml:space="preserve" color-interpolation-filters="sRGB" class="st3">
	<v:documentProperties v:langID="1049" v:metric="true" v:viewMarkup="false"/>

	<style type="text/css">
	<![CDATA[
		.st1 {fill:#923931;stroke:#000000;stroke-linecap:round;stroke-linejoin:round;stroke-width:0.239999}
		.st2 {fill:#f3e1cd;stroke:#000000;stroke-linecap:round;stroke-linejoin:round;stroke-width:0.239999}
		.st3 {fill:none;fill-rule:evenodd;font-size:12;overflow:visible;stroke-linecap:square;stroke-miterlimit:3}
	]]>
	</style>

	<g v:mID="0" v:index="1" v:groupContext="foregroundPage">
		<title>Страница-1</title>
		<v:pageProperties v:drawingScale="0.0393701" v:pageScale="0.0393701" v:drawingUnits="24" v:shadowOffsetX="9"
				v:shadowOffsetY="-9"/>
		<g id="shape4-1" v:mID="4" v:groupContext="shape" transform="translate(28.5864,-136.304)">
			<title>Лист.43</title>
			<rect x="0" y="156.386" width="53.8582" height="14.1732" class="st1"/>
		</g>
		<g id="shape5-3" v:mID="5" v:groupContext="shape" transform="translate(85.2792,-136.304)">
			<title>Лист.44</title>
			<rect x="0" y="156.386" width="53.8582" height="14.1732" class="st1"/>
		</g>
		<g id="shape7-5" v:mID="7" v:groupContext="shape" transform="translate(85.2792,-102.288)">
			<title>Лист.47</title>
			<rect x="0" y="156.386" width="53.8582" height="14.1732" class="st1"/>
		</g>
		<g id="shape11-7" v:mID="11" v:groupContext="shape" transform="translate(141.972,-102.288)">
			<title>Лист.53</title>
			<rect x="0" y="156.386" width="28.3464" height="14.1732" class="st1"/>
		</g>
		<g id="shape12-9" v:mID="12" v:groupContext="shape" transform="translate(28.5864,-34.2564)">
			<title>Лист.56</title>
			<rect x="0" y="156.386" width="53.8582" height="14.1732" class="st1"/>
		</g>
		<g id="shape13-11" v:mID="13" v:groupContext="shape" transform="translate(85.2792,-34.2564)">
			<title>Лист.57</title>
			<rect x="0" y="156.386" width="53.8582" height="14.1732" class="st1"/>
		</g>
		<g id="shape14-13" v:mID="14" v:groupContext="shape" transform="translate(141.972,-68.2722)">
			<title>Лист.59</title>
			<rect x="0" y="156.386" width="28.3464" height="14.1732" class="st1"/>
		</g>
		<g id="shape15-15" v:mID="15" v:groupContext="shape" transform="translate(141.972,-34.2564)">
			<title>Лист.61</title>
			<rect x="0" y="156.386" width="28.3464" height="14.1732" class="st1"/>
		</g>
		<g id="shape16-17" v:mID="16" v:groupContext="shape" transform="translate(141.972,-0.240799)">
			<title>Лист.65</title>
			<rect x="0" y="156.386" width="28.3464" height="14.1732" class="st1"/>
		</g>
		<g id="shape17-19" v:mID="17" v:groupContext="shape" transform="translate(56.9328,-153.311)">
			<title>Лист.66</title>
			<rect x="0" y="156.386" width="53.8582" height="14.1732" class="st1"/>
		</g>
		<g id="shape19-21" v:mID="19" v:groupContext="shape" transform="translate(56.9328,-119.296)">
			<title>Лист.68</title>
			<rect x="0" y="156.386" width="53.8582" height="14.1732" class="st1"/>
		</g>
		<g id="shape20-23" v:mID="20" v:groupContext="shape" transform="translate(113.626,-119.296)">
			<title>Лист.69</title>
			<rect x="0" y="156.386" width="53.8582" height="14.1732" class="st1"/>
		</g>
		<g id="shape22-25" v:mID="22" v:groupContext="shape" transform="translate(113.626,-85.28)">
			<title>Лист.71</title>
			<rect x="0" y="156.386" width="53.8582" height="14.1732" class="st1"/>
		</g>
		<g id="shape24-27" v:mID="24" v:groupContext="shape" transform="translate(113.626,-51.2643)">
			<title>Лист.73</title>
			<rect x="0" y="156.386" width="53.8582" height="14.1732" class="st1"/>
		</g>
		<g id="shape25-29" v:mID="25" v:groupContext="shape" transform="translate(56.9328,-17.2487)">
			<title>Лист.74</title>
			<rect x="0" y="156.386" width="53.8582" height="14.1732" class="st1"/>
		</g>
		<g id="shape26-31" v:mID="26" v:groupContext="shape" transform="translate(113.626,-17.2487)">
			<title>Лист.75</title>
			<rect x="0" y="156.386" width="53.8582" height="14.1732" class="st1"/>
		</g>
		<g id="shape27-33" v:mID="27" v:groupContext="shape" transform="translate(0.239999,-136.304)">
			<title>Лист.76</title>
			<rect x="0" y="156.386" width="25.5117" height="14.1732" class="st1"/>
		</g>
		<g id="shape28-35" v:mID="28" v:groupContext="shape" transform="translate(0.239999,-102.288)">
			<title>Лист.78</title>
			<rect x="0" y="156.386" width="25.5117" height="14.1732" class="st1"/>
		</g>
		<g id="shape29-37" v:mID="29" v:groupContext="shape" transform="translate(0.239999,-68.2722)">
			<title>Лист.80</title>
			<rect x="0" y="156.386" width="25.5117" height="14.1732" class="st1"/>
		</g>
		<g id="shape30-39" v:mID="30" v:groupContext="shape" transform="translate(0.239999,-34.2564)">
			<title>Лист.82</title>
			<rect x="0" y="156.386" width="25.5117" height="14.1732" class="st1"/>
		</g>
		<g id="shape31-41" v:mID="31" v:groupContext="shape" transform="translate(28.5864,-0.240799)">
			<title>Лист.85</title>
			<rect x="0" y="156.386" width="53.8582" height="14.1732" class="st1"/>
		</g>
		<g id="shape32-43" v:mID="32" v:groupContext="shape" transform="translate(85.2792,-0.240799)">
			<title>Лист.86</title>
			<rect x="0" y="156.386" width="53.8582" height="14.1732" class="st1"/>
		</g>
		<g id="shape33-45" v:mID="33" v:groupContext="shape" transform="translate(0.239999,-153.311)">
			<title>Лист.87</title>
			<rect x="0" y="156.386" width="53.8582" height="14.1732" class="st1"/>
		</g>
		<g id="shape34-47" v:mID="34" v:groupContext="shape" transform="translate(0.239999,-119.296)">
			<title>Лист.88</title>
			<rect x="0" y="156.386" width="53.8582" height="14.1732" class="st1"/>
		</g>
		<g id="shape35-49" v:mID="35" v:groupContext="shape" transform="translate(0.239999,-85.28)">
			<title>Лист.89</title>
			<rect x="0" y="156.386" width="53.8582" height="14.1732" class="st1"/>
		</g>
		<g id="shape36-51" v:mID="36" v:groupContext="shape" transform="translate(0.239999,-51.2643)">
			<title>Лист.90</title>
			<rect x="0" y="156.386" width="53.8582" height="14.1732" class="st1"/>
		</g>
		<g id="shape1-53" v:mID="1" v:groupContext="shape" transform="translate(0.239999,-0.239999)">
			<title>Лист.1</title>
			<path d="M26.08 170.56 L28.35 170.56 L28.35 156.39 L82.2 156.39 L82.2 170.56 L85.04 170.56 L85.04 156.39 L138.9 156.39
						 L138.9 170.56 L141.73 170.56 L141.73 156.39 L170.08 156.39 L170.08 136.54 L141.73 136.54 L141.73 122.37
						 L170.08 122.37 L170.08 102.53 L141.73 102.53 L141.73 88.35 L170.08 88.35 L170.08 68.51 L141.73 68.51 L141.73
						 54.34 L170.08 54.34 L170.08 34.5 L141.73 34.5 L141.73 25.28 L141.59 25.28 L141.59 17.49 L113.39 17.49 L113.39
						 16.43 L113.24 16.43 L113.24 0.48 L0 0.48 L0 3.31 L53.86 3.31 L53.86 17.49 L0 17.49 L0 20.32 L25.51 20.32
						 L25.51 34.5 L0 34.5 L0 37.33 L53.86 37.33 L53.86 51.5 L0 51.5 L0 54.34 L25.51 54.34 L25.51 68.51 L0 68.51
						 L0 71.35 L53.86 71.35 L53.86 85.52 L0 85.52 L0 88.35 L25.51 88.35 L25.51 102.53 L0 102.53 L0 105.36 L53.86
						 105.36 L53.86 119.54 L0 119.54 L0 122.37 L25.51 122.37 L25.51 136.54 L0 136.54 L0 139.38 L53.86 139.38 L53.86
						 153.55 L26.08 153.55 L26.08 170.56 ZM55.84 68.51 L28.35 68.51 L28.35 54.34 L82.2 54.34 L82.2 68.51 L82.06
						 68.51 L82.06 71.35 L110.41 71.35 L110.55 71.35 L110.55 85.52 L110.41 85.52 L110.41 88.35 L138.9 88.35 L138.9
						 102.53 L110.41 102.53 L110.41 105.36 L110.55 105.36 L110.55 119.54 L82.06 119.54 L56.69 119.54 L55.84 119.54
						 L55.84 102.53 L28.35 102.53 L28.35 88.35 L55.84 88.35 L55.84 68.51 ZM113.39 153.55 L113.39 139.38 L167.24
						 139.38 L167.24 153.55 L113.39 153.55 ZM56.69 153.55 L56.69 139.38 L110.55 139.38 L110.55 153.55 L56.69 153.55
						 ZM113.39 119.54 L113.39 105.36 L167.24 105.36 L167.24 119.54 L113.39 119.54 ZM113.39 85.52 L113.39 71.35
						 L167.24 71.35 L167.24 85.52 L113.39 85.52 ZM113.39 51.5 L113.39 37.33 L167.24 37.33 L167.24 51.5 L113.39
						 51.5 ZM56.69 51.5 L56.69 37.33 L110.55 37.33 L110.55 51.5 L56.69 51.5 ZM56.69 17.49 L56.69 3.31 L110.55
						 3.31 L110.55 17.49 L56.69 17.49 ZM85.04 136.54 L85.04 122.37 L138.9 122.37 L138.9 136.54 L85.04 136.54 ZM28.35
						 136.54 L28.35 122.37 L82.2 122.37 L82.2 136.54 L28.35 136.54 ZM85.04 68.51 L85.04 54.34 L138.9 54.34 L138.9
						 68.51 L85.04 68.51 ZM85.04 34.5 L85.04 20.32 L138.9 20.32 L138.9 34.5 L85.04 34.5 ZM28.35 34.5 L28.35 20.32
						 L82.2 20.32 L82.2 34.5 L28.35 34.5 Z" class="st2"/>
		</g>
	</g>
</svg>
