<?xml version="1.0" encoding="UTF-8" standalone="no"?>
<!DOCTYPE svg PUBLIC "-//W3C//DTD SVG 1.0//EN" "http://www.w3.org/TR/2001/REC-SVG-20010904/DTD/svg10.dtd">
<!-- Создано Microsoft Visio 11.0, Экспорт SVG, версия 1.0 brick.svg Страница-1 -->
<svg xmlns="http://www.w3.org/2000/svg" xmlns:xlink="http://www.w3.org/1999/xlink" xmlns:ev="http://www.w3.org/2001/xml-events"
		xmlns:v="http://schemas.microsoft.com/visio/2003/SVGExtensions/" width="2.36887in" height="2.36887in"
		viewBox="0 0 170.559 170.559" xml:space="preserve" color-interpolation-filters="sRGB" class="st3">
	<v:documentProperties v:langID="1049" v:metric="true" v:viewMarkup="false"/>

	<style type="text/css">
	<![CDATA[
		.st1 {fill:#923931;stroke:#000000;stroke-linecap:round;stroke-linejoin:round;stroke-width:0.24}
		.st2 {fill:#f3e1cd;stroke:#000000;stroke-linecap:round;stroke-linejoin:round;stroke-width:0.24}
		.st3 {fill:none;fill-rule:evenodd;font-size:12;overflow:visible;stroke-linecap:square;stroke-miterlimit:3}
	]]>
	</style>

	<g v:mID="0" v:index="1" v:groupContext="foregroundPage">
		<title>Страница-1</title>
		<v:pageProperties v:drawingScale="0.0393701" v:pageScale="0.0393701" v:drawingUnits="24" v:shadowOffsetX="8.50394"
				v:shadowOffsetY="-8.50394"/>
		<g id="group1-1" transform="translate(0.24,-0.24)" v:mID="1" v:groupContext="group">
			<title>Лист.1</title>
			<g id="shape43-2" v:mID="43" v:groupContext="shape" transform="translate(28.3465,-136.063)">
				<title>Лист.43</title>
				<rect x="0" y="156.386" width="53.8583" height="14.1732" class="st1"/>
			</g>
			<g id="shape44-4" v:mID="44" v:groupContext="shape" transform="translate(85.0394,-136.063)">
				<title>Лист.44</title>
				<rect x="0" y="156.386" width="53.8583" height="14.1732" class="st1"/>
			</g>
			<g id="shape45-6" v:mID="45" v:groupContext="shape" transform="translate(28.3465,-102.047)">
				<title>Лист.45</title>
				<rect x="0" y="156.386" width="53.8583" height="14.1732" class="st1"/>
			</g>
			<g id="shape47-8" v:mID="47" v:groupContext="shape" transform="translate(85.0394,-102.047)">
				<title>Лист.47</title>
				<rect x="0" y="156.386" width="53.8583" height="14.1732" class="st1"/>
			</g>
			<g id="shape48-10" v:mID="48" v:groupContext="shape" transform="translate(141.732,-136.063)">
				<title>Лист.48</title>
				<rect x="0" y="156.386" width="28.3465" height="14.1732" class="st1"/>
			</g>
			<g id="shape51-12" v:mID="51" v:groupContext="shape" transform="translate(28.3465,-68.0315)">
				<title>Лист.51</title>
				<rect x="0" y="156.386" width="53.8583" height="14.1732" class="st1"/>
			</g>
			<g id="shape52-14" v:mID="52" v:groupContext="shape" transform="translate(85.0394,-68.0315)">
				<title>Лист.52</title>
				<rect x="0" y="156.386" width="53.8583" height="14.1732" class="st1"/>
			</g>
			<g id="shape53-16" v:mID="53" v:groupContext="shape" transform="translate(141.732,-102.047)">
				<title>Лист.53</title>
				<rect x="0" y="156.386" width="28.3465" height="14.1732" class="st1"/>
			</g>
			<g id="shape56-18" v:mID="56" v:groupContext="shape" transform="translate(28.3465,-34.0157)">
				<title>Лист.56</title>
				<rect x="0" y="156.386" width="53.8583" height="14.1732" class="st1"/>
			</g>
			<g id="shape57-20" v:mID="57" v:groupContext="shape" transform="translate(85.0394,-34.0157)">
				<title>Лист.57</title>
				<rect x="0" y="156.386" width="53.8583" height="14.1732" class="st1"/>
			</g>
			<g id="shape59-22" v:mID="59" v:groupContext="shape" transform="translate(141.732,-68.0315)">
				<title>Лист.59</title>
				<rect x="0" y="156.386" width="28.3465" height="14.1732" class="st1"/>
			</g>
			<g id="shape61-24" v:mID="61" v:groupContext="shape" transform="translate(141.732,-34.0157)">
				<title>Лист.61</title>
				<rect x="0" y="156.386" width="28.3465" height="14.1732" class="st1"/>
			</g>
			<g id="shape65-26" v:mID="65" v:groupContext="shape" transform="translate(141.732,2.84217E-014)">
				<title>Лист.65</title>
				<rect x="0" y="156.386" width="28.3465" height="14.1732" class="st1"/>
			</g>
			<g id="shape66-28" v:mID="66" v:groupContext="shape" transform="translate(56.6929,-153.071)">
				<title>Лист.66</title>
				<rect x="0" y="156.386" width="53.8583" height="14.1732" class="st1"/>
			</g>
			<g id="shape67-30" v:mID="67" v:groupContext="shape" transform="translate(113.386,-153.071)">
				<title>Лист.67</title>
				<rect x="0" y="156.386" width="53.8583" height="14.1732" class="st1"/>
			</g>
			<g id="shape68-32" v:mID="68" v:groupContext="shape" transform="translate(56.6929,-119.055)">
				<title>Лист.68</title>
				<rect x="0" y="156.386" width="53.8583" height="14.1732" class="st1"/>
			</g>
			<g id="shape69-34" v:mID="69" v:groupContext="shape" transform="translate(113.386,-119.055)">
				<title>Лист.69</title>
				<rect x="0" y="156.386" width="53.8583" height="14.1732" class="st1"/>
			</g>
			<g id="shape70-36" v:mID="70" v:groupContext="shape" transform="translate(56.6929,-85.0394)">
				<title>Лист.70</title>
				<rect x="0" y="156.386" width="53.8583" height="14.1732" class="st1"/>
			</g>
			<g id="shape71-38" v:mID="71" v:groupContext="shape" transform="translate(113.386,-85.0394)">
				<title>Лист.71</title>
				<rect x="0" y="156.386" width="53.8583" height="14.1732" class="st1"/>
			</g>
			<g id="shape72-40" v:mID="72" v:groupContext="shape" transform="translate(56.6929,-51.0236)">
				<title>Лист.72</title>
				<rect x="0" y="156.386" width="53.8583" height="14.1732" class="st1"/>
			</g>
			<g id="shape73-42" v:mID="73" v:groupContext="shape" transform="translate(113.386,-51.0236)">
				<title>Лист.73</title>
				<rect x="0" y="156.386" width="53.8583" height="14.1732" class="st1"/>
			</g>
			<g id="shape74-44" v:mID="74" v:groupContext="shape" transform="translate(56.6929,-17.0079)">
				<title>Лист.74</title>
				<rect x="0" y="156.386" width="53.8583" height="14.1732" class="st1"/>
			</g>
			<g id="shape75-46" v:mID="75" v:groupContext="shape" transform="translate(113.386,-17.0079)">
				<title>Лист.75</title>
				<rect x="0" y="156.386" width="53.8583" height="14.1732" class="st1"/>
			</g>
			<g id="shape76-48" v:mID="76" v:groupContext="shape" transform="translate(-1.39888E-014,-136.063)">
				<title>Лист.76</title>
				<rect x="0" y="156.386" width="25.5118" height="14.1732" class="st1"/>
			</g>
			<g id="shape78-50" v:mID="78" v:groupContext="shape" transform="translate(-1.39888E-014,-102.047)">
				<title>Лист.78</title>
				<rect x="0" y="156.386" width="25.5118" height="14.1732" class="st1"/>
			</g>
			<g id="shape80-52" v:mID="80" v:groupContext="shape" transform="translate(-1.39888E-014,-68.0315)">
				<title>Лист.80</title>
				<rect x="0" y="156.386" width="25.5118" height="14.1732" class="st1"/>
			</g>
			<g id="shape82-54" v:mID="82" v:groupContext="shape" transform="translate(-1.39888E-014,-34.0157)">
				<title>Лист.82</title>
				<rect x="0" y="156.386" width="25.5118" height="14.1732" class="st1"/>
			</g>
			<g id="shape85-56" v:mID="85" v:groupContext="shape" transform="translate(28.3465,2.84217E-014)">
				<title>Лист.85</title>
				<rect x="0" y="156.386" width="53.8583" height="14.1732" class="st1"/>
			</g>
			<g id="shape86-58" v:mID="86" v:groupContext="shape" transform="translate(85.0394,2.84217E-014)">
				<title>Лист.86</title>
				<rect x="0" y="156.386" width="53.8583" height="14.1732" class="st1"/>
			</g>
			<g id="shape87-60" v:mID="87" v:groupContext="shape" transform="translate(1.19904E-014,-153.071)">
				<title>Лист.87</title>
				<rect x="0" y="156.386" width="53.8583" height="14.1732" class="st1"/>
			</g>
			<g id="shape88-62" v:mID="88" v:groupContext="shape" transform="translate(1.19904E-014,-119.055)">
				<title>Лист.88</title>
				<rect x="0" y="156.386" width="53.8583" height="14.1732" class="st1"/>
			</g>
			<g id="shape89-64" v:mID="89" v:groupContext="shape" transform="translate(1.19904E-014,-85.0394)">
				<title>Лист.89</title>
				<rect x="0" y="156.386" width="53.8583" height="14.1732" class="st1"/>
			</g>
			<g id="shape90-66" v:mID="90" v:groupContext="shape" transform="translate(1.19904E-014,-51.0236)">
				<title>Лист.90</title>
				<rect x="0" y="156.386" width="53.8583" height="14.1732" class="st1"/>
			</g>
			<g id="shape91-68" v:mID="91" v:groupContext="shape" transform="translate(1.19904E-014,-17.0079)">
				<title>Лист.91</title>
				<rect x="0" y="156.386" width="53.8583" height="14.1732" class="st1"/>
			</g>
			<g id="shape92-70" v:mID="92" v:groupContext="shape">
				<title>Лист.92</title>
				<path d="M25.51 170.56 L28.35 170.56 L28.35 156.39 L82.2 156.39 L82.2 170.56 L85.04 170.56 L85.04 156.39 L138.9 156.39
							 L138.9 170.56 L141.73 170.56 L141.73 156.39 L170.08 156.39 L170.08 136.54 L141.73 136.54 L141.73 122.37
							 L170.08 122.37 L170.08 102.53 L141.73 102.53 L141.73 88.35 L170.08 88.35 L170.08 68.51 L141.73 68.51
							 L141.73 54.34 L170.08 54.34 L170.08 34.5 L141.73 34.5 L141.73 20.32 L170.08 20.32 L170.08 0.48 L0 0.48
							 L0 3.31 L53.86 3.31 L53.86 17.49 L0 17.49 L0 20.32 L25.51 20.32 L25.51 34.5 L0 34.5 L0 37.33 L53.86
							 37.33 L53.86 51.5 L0 51.5 L0 54.34 L25.51 54.34 L25.51 68.51 L0 68.51 L0 71.35 L53.86 71.35 L53.86 85.52
							 L0 85.52 L0 88.35 L25.51 88.35 L25.51 102.53 L0 102.53 L0 105.36 L53.86 105.36 L53.86 119.54 L0 119.54
							 L0 122.37 L25.51 122.37 L25.51 136.54 L0 136.54 L0 139.38 L53.86 139.38 L53.86 153.55 L0 153.55 L0 156.39
							 L25.51 156.39 L25.51 170.56 ZM28.35 34.5 L28.35 20.32 L82.2 20.32 L82.2 34.5 L28.35 34.5 ZM85.04 34.5
							 L85.04 20.32 L138.9 20.32 L138.9 34.5 L85.04 34.5 ZM28.35 68.51 L28.35 54.34 L82.2 54.34 L82.2 68.51
							 L28.35 68.51 ZM85.04 68.51 L85.04 54.34 L138.9 54.34 L138.9 68.51 L85.04 68.51 ZM28.35 102.53 L28.35
							 88.35 L82.2 88.35 L82.2 102.53 L28.35 102.53 ZM85.04 102.53 L85.04 88.35 L138.9 88.35 L138.9 102.53
							 L85.04 102.53 ZM28.35 136.54 L28.35 122.37 L82.2 122.37 L82.2 136.54 L28.35 136.54 ZM85.04 136.54 L85.04
							 122.37 L138.9 122.37 L138.9 136.54 L85.04 136.54 ZM56.69 17.49 L56.69 3.31 L110.55 3.31 L110.55 17.49
							 L56.69 17.49 ZM113.39 17.49 L113.39 3.31 L167.24 3.31 L167.24 17.49 L113.39 17.49 ZM56.69 51.5 L56.69
							 37.33 L110.55 37.33 L110.55 51.5 L56.69 51.5 ZM113.39 51.5 L113.39 37.33 L167.24 37.33 L167.24 51.5
							 L113.39 51.5 ZM56.69 85.52 L56.69 71.35 L110.55 71.35 L110.55 85.52 L56.69 85.52 ZM113.39 85.52 L113.39
							 71.35 L167.24 71.35 L167.24 85.52 L113.39 85.52 ZM56.69 119.54 L56.69 105.36 L110.55 105.36 L110.55
							 119.54 L56.69 119.54 ZM113.39 119.54 L113.39 105.36 L167.24 105.36 L167.24 119.54 L113.39 119.54 ZM56.69
							 153.55 L56.69 139.38 L110.55 139.38 L110.55 153.55 L56.69 153.55 ZM113.39 153.55 L113.39 139.38 L167.24
							 139.38 L167.24 153.55 L113.39 153.55 Z" class="st2"/>
			</g>
			<g id="shape93-72" v:mID="93" v:groupContext="shape">
				<title>Лист.93</title>
				<rect x="0" y="156.386" width="25.5118" height="14.1732" class="st1"/>
			</g>
		</g>
	</g>
</svg>
