<?xml version="1.0" encoding="UTF-8" standalone="no"?>
<!DOCTYPE svg PUBLIC "-//W3C//DTD SVG 1.0//EN" "http://www.w3.org/TR/2001/REC-SVG-20010904/DTD/svg10.dtd">
<!-- Создано Microsoft Visio 11.0, Экспорт SVG, версия 1.0 cube-red.svg Страница-1 -->
<svg xmlns="http://www.w3.org/2000/svg" xmlns:xlink="http://www.w3.org/1999/xlink" xmlns:ev="http://www.w3.org/2001/xml-events"
		xmlns:v="http://schemas.microsoft.com/visio/2003/SVGExtensions/" width="0.164147in" height="0.164306in"
		viewBox="0 0 11.8186 11.83" xml:space="preserve" color-interpolation-filters="sRGB" class="st6">
	<v:documentProperties v:langID="1033" v:metric="true" v:viewMarkup="false"/>

	<style type="text/css">
	<![CDATA[
		.st1 {fill:url(#grad38-4);stroke:#800000;stroke-linecap:round;stroke-linejoin:round;stroke-opacity:0.8;stroke-width:0.24}
		.st2 {fill:url(#grad37-8)}
		.st3 {stroke:#a50021;stroke-linecap:round;stroke-linejoin:round;stroke-opacity:0.8;stroke-width:0.24}
		.st4 {fill:url(#grad38-13);stroke:#800000;stroke-linecap:round;stroke-linejoin:round;stroke-opacity:0.8;stroke-width:0.24}
		.st5 {fill:url(#grad40-17);stroke:none;stroke-linecap:round;stroke-linejoin:round;stroke-width:0.24}
		.st6 {fill:none;fill-rule:evenodd;font-size:12;overflow:visible;stroke-linecap:square;stroke-miterlimit:3}
	]]>
	</style>

	<defs id="Patterns_And_Gradients">
		<radialGradient id="grad38-4" v:fillPattern="38" v:foreground="#460e02" v:foregroundOpacity="0.7" v:background="#cc0000"
				v:backgroundOpacity="0.7" cx="0" cy="1" r="1">
			<stop offset="0" style="stop-color:#460e02;stop-opacity:0.7"/>
			<stop offset="1" style="stop-color:#cc0000;stop-opacity:0.7"/>
		</radialGradient>
		<radialGradient id="grad37-8" v:fillPattern="37" v:foreground="#e8eef7" v:foregroundOpacity="0.7" v:background="#cc3300"
				v:backgroundOpacity="0.7" cx="1" cy="0" r="1">
			<stop offset="0" style="stop-color:#e8eef7;stop-opacity:0.7"/>
			<stop offset="1" style="stop-color:#cc3300;stop-opacity:0.7"/>
		</radialGradient>
		<radialGradient id="grad38-13" v:fillPattern="38" v:foreground="#420902" v:foregroundOpacity="0.7" v:background="#800000"
				v:backgroundOpacity="0.7" cx="0" cy="1" r="1">
			<stop offset="0" style="stop-color:#420902;stop-opacity:0.7"/>
			<stop offset="1" style="stop-color:#800000;stop-opacity:0.7"/>
		</radialGradient>
		<radialGradient id="grad40-17" v:fillPattern="40" v:foreground="#ffffff" v:background="#e10000" cx="0.5" cy="0.5" r="0.5">
			<stop offset="0" style="stop-color:#ffffff;stop-opacity:1"/>
			<stop offset="1" style="stop-color:#e10000;stop-opacity:1"/>
		</radialGradient>
	</defs>
	<g v:mID="0" v:index="1" v:groupContext="foregroundPage">
		<title>Страница-1</title>
		<v:pageProperties v:drawingScale="0.0393701" v:pageScale="0.0393701" v:drawingUnits="24" v:shadowOffsetX="8.50394"
				v:shadowOffsetY="-8.50394"/>
		<g id="shape1-1" v:mID="1" v:groupContext="shape" transform="translate(0.24,-3.07465)">
			<title>Лист.1</title>
			<path d="M5.67 9 L5.67 3.34 L0 6.17 L0 11.83 L5.67 9 Z" class="st1"/>
		</g>
		<g id="shape2-5" v:mID="2" v:groupContext="shape" transform="translate(0.24,-0.24)">
			<title>Лист.2</title>
			<path d="M5.66 11.83 L5.73 11.75 L5.66 11.83 ZM11.34 8.95 L5.73 6.15 L0 8.95 L5.66 11.83 L11.34 9.01 L11.34 8.95 Z"
					class="st2"/>
			<path d="M5.66 11.83 L5.73 11.75M11.34 8.95 L5.73 6.15 L0 8.95 L5.66 11.83 L11.34 9.01" class="st3"/>
		</g>
		<g id="shape3-10" v:mID="3" v:groupContext="shape" transform="translate(5.90929,-3.07465)">
			<title>Лист.3</title>
			<path d="M0 9 L5.67 11.83 L5.67 6.17 L0 3.34 L0 9 Z" class="st4"/>
		</g>
		<g id="shape4-14" v:mID="4" v:groupContext="shape" transform="translate(3.07465,-3.07465)">
			<title>Circle</title>
			<v:userDefs>
				<v:ud v:nameU="visVersion" v:val="VT0(11):26"/>
			</v:userDefs>
			<path d="M0 9 A2.83465 2.83465 0 0 1 5.67 9 A2.83465 2.83465 0 1 1 0 9 Z" class="st5"/>
		</g>
		<g id="shape5-18" v:mID="5" v:groupContext="shape" transform="translate(0.24,-0.257145)">
			<title>Лист.5</title>
			<path d="M0 9 L5.67 11.83 L5.67 6.17 L0 3.34 L0 9 Z" class="st4"/>
		</g>
		<g id="shape6-21" v:mID="6" v:groupContext="shape" transform="translate(0.24,-5.90929)">
			<title>Лист.6</title>
			<path d="M5.66 11.83 L5.73 11.75 L5.66 11.83 ZM11.34 8.95 L5.73 6.15 L0 8.95 L5.66 11.83 L11.34 9.01 L11.34 8.95 Z"
					class="st2"/>
			<path d="M5.66 11.83 L5.73 11.75M11.34 8.95 L5.73 6.15 L0 8.95 L5.66 11.83 L11.34 9.01" class="st3"/>
		</g>
		<g id="shape7-25" v:mID="7" v:groupContext="shape" transform="translate(5.90929,-0.257145)">
			<title>Лист.7</title>
			<path d="M5.67 9 L5.67 3.34 L0 6.17 L0 11.83 L5.67 9 Z" class="st1"/>
		</g>
	</g>
</svg>
