<?xml version="1.0" encoding="UTF-8" standalone="no"?>
<!DOCTYPE svg PUBLIC "-//W3C//DTD SVG 1.0//EN" "http://www.w3.org/TR/2001/REC-SVG-20010904/DTD/svg10.dtd">
<!-- Создано Microsoft Visio 11.0, Экспорт SVG, версия 1.0 cube-red-1.svg Страница-1 -->
<svg xmlns="http://www.w3.org/2000/svg" xmlns:xlink="http://www.w3.org/1999/xlink" xmlns:ev="http://www.w3.org/2001/xml-events"
		xmlns:v="http://schemas.microsoft.com/visio/2003/SVGExtensions/" width="0.164147in" height="0.164147in"
		viewBox="0 0 11.8186 11.8186" xml:space="preserve" color-interpolation-filters="sRGB" class="st5">
	<v:documentProperties v:langID="1033" v:metric="true" v:viewMarkup="false"/>

	<style type="text/css">
	<![CDATA[
		.st1 {fill:#cc0000;stroke:#800000;stroke-linecap:round;stroke-linejoin:round;stroke-width:0.24}
		.st2 {fill:#800000;stroke:#800000;stroke-linecap:round;stroke-linejoin:round;stroke-width:0.24}
		.st3 {fill:#ff5050}
		.st4 {stroke:#800000;stroke-linecap:round;stroke-linejoin:round;stroke-width:0.24}
		.st5 {fill:none;fill-rule:evenodd;font-size:12;overflow:visible;stroke-linecap:square;stroke-miterlimit:3}
	]]>
	</style>

	<g v:mID="0" v:index="1" v:groupContext="foregroundPage">
		<title>Страница-1</title>
		<v:pageProperties v:drawingScale="0.0393701" v:pageScale="0.0393701" v:drawingUnits="24" v:shadowOffsetX="8.50394"
				v:shadowOffsetY="-8.50394"/>
		<g id="shape2-1" v:mID="2" v:groupContext="shape" transform="translate(5.90929,-0.24)">
			<title>Лист.2</title>
			<path d="M5.67 8.99 L5.67 3.33 L0 6.16 L0 11.82 L5.67 8.99 Z" class="st1"/>
		</g>
		<g id="shape3-3" v:mID="3" v:groupContext="shape" transform="translate(0.24,-0.24)">
			<title>Лист.3</title>
			<path d="M0 8.99 L5.67 11.82 L5.67 6.16 L0 3.33 L0 8.99 Z" class="st2"/>
		</g>
		<g id="shape4-5" v:mID="4" v:groupContext="shape" transform="translate(0.24,-5.89786)">
			<title>Лист.4</title>
			<path d="M5.66 11.82 L5.73 11.74 L5.66 11.82 ZM11.34 8.94 L5.73 6.14 L0 8.94 L5.66 11.82 L11.34 9 L11.34 8.94 Z"
					class="st3"/>
			<path d="M5.66 11.82 L5.73 11.74M11.34 8.94 L5.73 6.14 L0 8.94 L5.66 11.82 L11.34 9" class="st4"/>
		</g>
	</g>
</svg>
