<?xml version="1.0" encoding="UTF-8" standalone="no"?>
<!DOCTYPE svg PUBLIC "-//W3C//DTD SVG 1.0//EN" "http://www.w3.org/TR/2001/REC-SVG-20010904/DTD/svg10.dtd">
<!-- Создано Microsoft Visio 11.0, Экспорт SVG, версия 1.0 dwarfen-2.svg Страница-1 -->
<svg xmlns="http://www.w3.org/2000/svg" xmlns:xlink="http://www.w3.org/1999/xlink" xmlns:ev="http://www.w3.org/2001/xml-events"
		xmlns:v="http://schemas.microsoft.com/visio/2003/SVGExtensions/" width="4.95915in" height="4.95915in"
		viewBox="0 0 357.059 357.059" xml:space="preserve" color-interpolation-filters="sRGB" class="st2">
	<v:documentProperties v:langID="1049" v:metric="true" v:viewMarkup="false"/>

	<style type="text/css">
	<![CDATA[
		.st1 {fill:#ffffff;stroke:#ffffff;stroke-linecap:round;stroke-linejoin:round;stroke-width:2.25}
		.st2 {fill:none;fill-rule:evenodd;font-size:12;overflow:visible;stroke-linecap:square;stroke-miterlimit:3}
	]]>
	</style>

	<g v:mID="0" v:index="1" v:groupContext="foregroundPage">
		<title>Страница-1</title>
		<v:pageProperties v:drawingScale="0.0393701" v:pageScale="0.0393701" v:drawingUnits="24" v:shadowOffsetX="8.50394"
				v:shadowOffsetY="-8.50394"/>
		<g id="shape1-1" v:mID="1" v:groupContext="shape" transform="translate(2.25,-2.25)">
			<title>Лист.1</title>
			<path d="M220.39 180.78 L198.43 202.75 L210.61 214.94 L222.41 203.14 L248.55 229.28 A85.0394 85.0394 0 0 1 238.69 241.95
						 L248.71 251.97 A99.2126 99.2126 -180 0 0 258.78 239.51 L288.64 269.36 L265.75 269.36 L265.39 269.01 L265.39
						 269.36 L265.04 269.36 L284.17 288.5 L328.11 288.5 L287.01 247.39 L352.56 181.84 L352.56 180.78 L352.56 179.72
						 L287.01 114.17 L328.11 73.06 L284.17 73.06 L265.04 92.2 L265.39 92.2 L265.39 92.55 L265.75 92.2 L288.64
						 92.2 L258.78 122.05 A99.2126 99.2126 -180 0 0 248.71 109.59 L238.69 119.61 A85.0394 85.0394 0 0 1 248.55
						 132.28 L222.41 158.42 L210.61 146.62 L198.43 158.81 L220.39 180.78 ZM261.8 180.78 A85.0394 85.0394 0 0 1
						 261.85 183.61 A85.0394 85.0394 0 0 1 255.49 215.88 L232.58 192.97 L244.77 180.78 L232.58 168.59 L255.49
						 145.68 A85.0394 85.0394 0 0 1 261.85 177.94 A85.0394 85.0394 0 0 1 261.8 180.78 ZM328.11 180.78 L274.25
						 234.64 L266.22 226.61 A99.2126 99.2126 -180 0 0 276.02 183.61 A99.2126 99.2126 -180 0 0 275.98 180.78 A99.2126
						 99.2126 -180 0 0 276.02 177.94 A99.2126 99.2126 -180 0 0 266.22 134.95 L274.25 126.92 L328.11 180.78 ZM176.28
						 112.29 L164.09 124.48 L141.18 101.57 A85.0394 85.0394 90 0 1 173.44 95.21 A85.0394 85.0394 90 0 1 176.28
						 95.26 A85.0394 85.0394 90 0 1 179.11 95.21 A85.0394 85.0394 90 0 1 211.38 101.57 L188.47 124.48 L176.28
						 112.29 ZM176.28 4.5 L175.22 4.5 L109.67 70.05 L68.56 28.95 L68.56 72.89 L87.7 92.02 L87.7 91.67 L88.05 91.67
						 L87.7 91.31 L87.7 68.42 L117.55 98.28 A99.2126 99.2126 -90 0 0 105.09 108.34 L115.11 118.37 A85.0394 85.0394
						 90 0 1 127.78 108.51 L153.92 134.64 L142.12 146.44 L154.31 158.63 L176.28 136.67 L198.25 158.63 L210.44
						 146.44 L198.64 134.64 L224.78 108.51 A85.0394 85.0394 90 0 1 237.45 118.37 L247.47 108.34 A99.2126 99.2126
						 -90 0 0 235.01 98.28 L264.86 68.42 L264.86 91.31 L264.51 91.67 L264.86 91.67 L264.86 92.02 L284 72.89 L284
						 28.95 L242.89 70.05 L177.34 4.5 L176.28 4.5 ZM176.28 81.08 A99.2126 99.2126 -90 0 0 173.44 81.04 A99.2126
						 99.2126 -90 0 0 130.45 90.84 L122.42 82.81 L176.28 28.95 L230.14 82.81 L222.11 90.84 A99.2126 99.2126 -90
						 0 0 179.11 81.04 A99.2126 99.2126 -90 0 0 176.28 81.08 ZM176.28 224.89 L154.31 202.93 L142.12 215.11 L153.92
						 226.91 L127.78 253.05 A85.0394 85.0394 90 0 1 115.11 243.19 L105.09 253.21 A99.2126 99.2126 -90 0 0 117.55
						 263.28 L87.7 293.14 L87.7 270.25 L88.05 269.89 L87.7 269.89 L87.7 269.54 L68.56 288.67 L68.56 332.61 L109.67
						 291.51 L175.22 357.06 L176.28 357.06 L177.34 357.06 L242.89 291.51 L284 332.61 L284 288.67 L264.86 269.54
						 L264.86 269.89 L264.51 269.89 L264.86 270.25 L264.86 293.14 L235.01 263.28 A99.2126 99.2126 -90 0 0 247.47
						 253.21 L237.45 243.19 A85.0394 85.0394 90 0 1 224.78 253.05 L198.64 226.91 L210.44 215.11 L198.25 202.93
						 L176.28 224.89 ZM176.28 266.3 A85.0394 85.0394 90 0 1 173.44 266.35 A85.0394 85.0394 90 0 1 141.18 259.99
						 L164.09 237.08 L176.28 249.27 L188.47 237.08 L211.38 259.99 A85.0394 85.0394 90 0 1 179.11 266.35 A85.0394
						 85.0394 90 0 1 176.28 266.3 ZM176.28 332.61 L122.42 278.75 L130.45 270.72 A99.2126 99.2126 -90 0 0 173.44
						 280.52 A99.2126 99.2126 -90 0 0 176.28 280.48 A99.2126 99.2126 -90 0 0 179.11 280.52 A99.2126 99.2126 -90
						 0 0 222.11 270.72 L230.14 278.75 L176.28 332.61 ZM107.79 180.78 L119.98 192.97 L97.07 215.88 A85.0394 85.0394
						 0 0 1 90.71 183.61 A85.0394 85.0394 0 0 1 90.76 180.78 A85.0394 85.0394 0 0 1 90.71 177.94 A85.0394 85.0394
						 0 0 1 97.07 145.68 L119.98 168.59 L107.79 180.78 ZM0 180.78 L0 181.84 L65.55 247.39 L24.45 288.5 L68.39
						 288.5 L87.52 269.36 L87.17 269.36 L87.17 269.01 L86.81 269.36 L63.92 269.36 L93.78 239.51 A99.2126 99.2126
						 -180 0 0 103.84 251.97 L113.87 241.95 A85.0394 85.0394 0 0 1 104.01 229.28 L130.14 203.14 L141.94 214.94
						 L154.13 202.75 L132.17 180.78 L154.13 158.81 L141.94 146.62 L130.14 158.42 L104.01 132.28 A85.0394 85.0394
						 0 0 1 113.87 119.61 L103.84 109.59 A99.2126 99.2126 -180 0 0 93.78 122.05 L63.92 92.2 L86.81 92.2 L87.17
						 92.55 L87.17 92.2 L87.52 92.2 L68.39 73.06 L24.45 73.06 L65.55 114.17 L0 179.72 L0 180.78 ZM76.58 180.78
						 A99.2126 99.2126 -180 0 0 76.54 183.61 A99.2126 99.2126 -180 0 0 86.34 226.61 L78.31 234.64 L24.45 180.78
						 L78.31 126.92 L86.34 134.95 A99.2126 99.2126 -180 0 0 76.54 177.94 A99.2126 99.2126 -180 0 0 76.58 180.78
						 Z" class="st1"/>
		</g>
	</g>
</svg>
