<?xml version="1.0" encoding="UTF-8" standalone="no"?>
<!DOCTYPE svg PUBLIC "-//W3C//DTD SVG 1.0//EN" "http://www.w3.org/TR/2001/REC-SVG-20010904/DTD/svg10.dtd">
<!-- Создано Microsoft Visio 11.0, Экспорт SVG, версия 1.0 dwarfen-1.svg Страница-1 -->
<svg xmlns="http://www.w3.org/2000/svg" xmlns:xlink="http://www.w3.org/1999/xlink" xmlns:ev="http://www.w3.org/2001/xml-events"
		xmlns:v="http://schemas.microsoft.com/visio/2003/SVGExtensions/" width="4.97999in" height="4.97999in"
		viewBox="0 0 358.559 358.559" xml:space="preserve" color-interpolation-filters="sRGB" class="st2">
	<v:documentProperties v:langID="1049" v:metric="true" v:viewMarkup="false"/>

	<style type="text/css">
	<![CDATA[
		.st1 {fill:#0c0c0c;stroke:#000000;stroke-linecap:round;stroke-linejoin:round;stroke-width:3}
		.st2 {fill:none;fill-rule:evenodd;font-size:12;overflow:visible;stroke-linecap:square;stroke-miterlimit:3}
	]]>
	</style>

	<g v:mID="0" v:index="1" v:groupContext="foregroundPage">
		<title>Страница-1</title>
		<v:pageProperties v:drawingScale="0.0393701" v:pageScale="0.0393701" v:drawingUnits="24" v:shadowOffsetX="8.50394"
				v:shadowOffsetY="-8.50394"/>
		<g id="shape1-1" v:mID="1" v:groupContext="shape" transform="translate(3,-3)">
			<title>Лист.1</title>
			<path d="M107.79 182.28 L119.98 194.47 L97.07 217.38 A85.0394 85.0394 0 0 1 90.71 185.11 A85.0394 85.0394 0 0 1 90.76
						 182.28 A85.0394 85.0394 0 0 1 90.71 179.44 A85.0394 85.0394 0 0 1 97.07 147.18 L119.98 170.09 L107.79 182.28
						 ZM76.58 182.28 A99.2126 99.2126 -180 0 0 76.54 185.11 A99.2126 99.2126 -180 0 0 86.34 228.11 L78.31 236.14
						 L24.45 182.28 L78.31 128.42 L86.34 136.45 A99.2126 99.2126 -180 0 0 76.54 179.44 A99.2126 99.2126 -180 0
						 0 76.58 182.28 ZM0 182.28 L0 183.34 L65.55 248.89 L24.45 290 L68.39 290 L87.52 270.86 L87.17 270.86 L87.17
						 270.51 L86.81 270.86 L63.92 270.86 L93.78 241.01 A99.2126 99.2126 -180 0 0 103.84 253.47 L113.87 243.45
						 A85.0394 85.0394 0 0 1 104.01 230.78 L130.14 204.64 L141.94 216.44 L154.13 204.25 L132.17 182.28 L154.13
						 160.31 L141.94 148.12 L130.14 159.92 L104.01 133.78 A85.0394 85.0394 0 0 1 113.87 121.11 L103.84 111.09
						 A99.2126 99.2126 -180 0 0 93.78 123.55 L63.92 93.7 L86.81 93.7 L87.17 94.05 L87.17 93.7 L87.52 93.7 L68.39
						 74.56 L24.45 74.56 L65.55 115.67 L0 181.22 L0 182.28 ZM261.8 182.28 A85.0394 85.0394 0 0 1 261.85 185.11
						 A85.0394 85.0394 0 0 1 255.49 217.38 L232.58 194.47 L244.77 182.28 L232.58 170.09 L255.49 147.18 A85.0394
						 85.0394 0 0 1 261.85 179.44 A85.0394 85.0394 0 0 1 261.8 182.28 ZM328.11 182.28 L274.25 236.14 L266.22 228.11
						 A99.2126 99.2126 -180 0 0 276.02 185.11 A99.2126 99.2126 -180 0 0 275.98 182.28 A99.2126 99.2126 -180 0
						 0 276.02 179.44 A99.2126 99.2126 -180 0 0 266.22 136.45 L274.25 128.42 L328.11 182.28 ZM220.39 182.28 L198.43
						 204.25 L210.61 216.44 L222.41 204.64 L248.55 230.78 A85.0394 85.0394 0 0 1 238.69 243.45 L248.71 253.47
						 A99.2126 99.2126 -180 0 0 258.78 241.01 L288.64 270.86 L265.75 270.86 L265.39 270.51 L265.39 270.86 L265.04
						 270.86 L284.17 290 L328.11 290 L287.01 248.89 L352.56 183.34 L352.56 181.22 L287.01 115.67 L328.11 74.56
						 L284.17 74.56 L265.04 93.7 L265.39 93.7 L265.39 94.05 L265.75 93.7 L288.64 93.7 L258.78 123.55 A99.2126
						 99.2126 -180 0 0 248.71 111.09 L238.69 121.11 A85.0394 85.0394 0 0 1 248.55 133.78 L222.41 159.92 L210.61
						 148.12 L198.43 160.31 L220.39 182.28 ZM176.28 113.79 L164.09 125.98 L141.18 103.07 A85.0394 85.0394 90 0
						 1 173.44 96.71 A85.0394 85.0394 90 0 1 176.28 96.76 A85.0394 85.0394 90 0 1 179.11 96.71 A85.0394 85.0394
						 90 0 1 211.38 103.07 L188.47 125.98 L176.28 113.79 ZM176.28 82.58 A99.2126 99.2126 -90 0 0 173.44 82.54
						 A99.2126 99.2126 -90 0 0 130.45 92.34 L122.42 84.31 L176.28 30.45 L230.14 84.31 L222.11 92.34 A99.2126 99.2126
						 -90 0 0 179.11 82.54 A99.2126 99.2126 -90 0 0 176.28 82.58 ZM176.28 6 L175.22 6 L109.67 71.55 L68.56 30.45
						 L68.56 74.39 L87.7 93.52 L87.7 93.17 L88.05 93.17 L87.7 92.81 L87.7 69.92 L117.55 99.78 A99.2126 99.2126
						 -90 0 0 105.09 109.84 L115.11 119.87 A85.0394 85.0394 90 0 1 127.78 110.01 L153.92 136.14 L142.12 147.94
						 L154.31 160.13 L176.28 138.17 L198.25 160.13 L210.44 147.94 L198.64 136.14 L224.78 110.01 A85.0394 85.0394
						 90 0 1 237.45 119.87 L247.47 109.84 A99.2126 99.2126 -90 0 0 235.01 99.78 L264.86 69.92 L264.86 92.81 L264.51
						 93.17 L264.86 93.17 L264.86 93.52 L284 74.39 L284 30.45 L242.89 71.55 L177.34 6 L176.28 6 ZM176.28 267.8
						 A85.0394 85.0394 90 0 1 173.44 267.85 A85.0394 85.0394 90 0 1 141.18 261.49 L164.09 238.58 L176.28 250.77
						 L188.47 238.58 L211.38 261.49 A85.0394 85.0394 90 0 1 179.11 267.85 A85.0394 85.0394 90 0 1 176.28 267.8
						 ZM176.28 334.11 L122.42 280.25 L130.45 272.22 A99.2126 99.2126 -90 0 0 173.44 282.02 A99.2126 99.2126 -90
						 0 0 176.28 281.98 A99.2126 99.2126 -90 0 0 179.11 282.02 A99.2126 99.2126 -90 0 0 222.11 272.22 L230.14
						 280.25 L176.28 334.11 ZM176.28 226.39 L154.31 204.43 L142.12 216.61 L153.92 228.41 L127.78 254.55 A85.0394
						 85.0394 90 0 1 115.11 244.69 L105.09 254.71 A99.2126 99.2126 -90 0 0 117.55 264.78 L87.7 294.64 L87.7 271.75
						 L88.05 271.39 L87.7 271.39 L87.7 271.04 L68.56 290.17 L68.56 334.11 L109.67 293.01 L175.22 358.56 L177.34
						 358.56 L242.89 293.01 L284 334.11 L284 290.17 L264.86 271.04 L264.86 271.39 L264.51 271.39 L264.86 271.75
						 L264.86 294.64 L235.01 264.78 A99.2126 99.2126 -90 0 0 247.47 254.71 L237.45 244.69 A85.0394 85.0394 90
						 0 1 224.78 254.55 L198.64 228.41 L210.44 216.61 L198.25 204.43 L176.28 226.39 Z" class="st1"/>
		</g>
	</g>
</svg>
