<?xml version="1.0" encoding="UTF-8" standalone="no"?>
<!DOCTYPE svg PUBLIC "-//W3C//DTD SVG 1.0//EN" "http://www.w3.org/TR/2001/REC-SVG-20010904/DTD/svg10.dtd">
<!-- Создано Microsoft Visio 11.0, Экспорт SVG, версия 1.0 dwarfen-3.svg Страница-1 -->
<svg xmlns="http://www.w3.org/2000/svg" xmlns:xlink="http://www.w3.org/1999/xlink" xmlns:ev="http://www.w3.org/2001/xml-events"
		xmlns:v="http://schemas.microsoft.com/visio/2003/SVGExtensions/" width="4.92896in" height="4.92896in"
		viewBox="0 0 354.885 354.885" xml:space="preserve" color-interpolation-filters="sRGB" class="st2">
	<v:documentProperties v:langID="1049" v:metric="true" v:viewMarkup="false"/>

	<style type="text/css">
	<![CDATA[
		.st1 {fill:#ffffff;stroke:#000000;stroke-linecap:round;stroke-linejoin:round;stroke-width:0.72}
		.st2 {fill:none;fill-rule:evenodd;font-size:12;overflow:visible;stroke-linecap:square;stroke-miterlimit:3}
	]]>
	</style>

	<g v:mID="0" v:index="1" v:groupContext="foregroundPage">
		<title>Страница-1</title>
		<v:pageProperties v:drawingScale="0.0393701" v:pageScale="0.0393701" v:drawingUnits="24" v:shadowOffsetX="8.50394"
				v:shadowOffsetY="-8.50394"/>
		<g id="shape1-1" v:mID="1" v:groupContext="shape" transform="translate(0.72,-0.72)">
			<title>Лист.1</title>
			<path d="M353.44 178.16 L327.93 152.65 L327.93 70.45 L284.44 70.45 L284.44 26.95 L202.23 26.95 L176.72 1.44 L151.21 26.95
						 L69.01 26.95 L69.01 70.45 L25.51 70.45 L25.51 152.65 L0 178.16 L25.51 203.67 L25.51 285.88 L69.01 285.88
						 L69.01 329.37 L151.21 329.37 L176.72 354.88 L202.23 329.37 L284.44 329.37 L284.44 285.88 L327.93 285.88
						 L327.93 203.67 L353.44 178.16 ZM244.59 178.16 L232.41 165.97 L315.74 165.97 L327.93 178.16 L315.74 190.35
						 L232.41 190.35 L244.59 178.16 ZM250.09 251.53 L226.93 251.53 L199.08 223.68 L210.61 212.14 L210.7 212.05
						 L222.24 200.52 L250.09 228.37 L250.09 251.53 ZM265.22 266.39 L264.83 266.01 L263.91 242.19 L288.46 266.75
						 L265.57 266.75 L265.22 266.39 L265.22 266.66 L264.95 266.66 L265.31 267.01 L265.31 289.9 L240.75 265.35
						 L264.57 266.27 L264.95 266.66 L264.94 266.38 L265.22 266.39 ZM198.51 199.87 L198.43 199.95 L176.72 221.66
						 L155.02 199.95 L154.93 199.87 L133.23 178.16 L154.93 156.46 L155.02 156.37 L176.72 134.67 L198.43 156.37
						 L198.51 156.46 L220.22 178.16 L198.51 199.87 ZM298.17 207.93 L274.07 232.02 L249.98 207.93 L298.17 207.93
						 ZM314.47 272.41 L286.83 244.78 L314.47 217.14 L314.47 272.41 ZM176.72 329.37 L164.53 317.18 L164.53 233.85
						 L176.72 246.03 L188.91 233.85 L188.91 317.18 L176.72 329.37 ZM206.49 299.61 L206.49 251.42 L230.58 275.51
						 L206.49 299.61 ZM270.97 315.91 L215.7 315.91 L243.34 288.27 L270.97 315.91 ZM103.36 251.53 L103.36 228.37
						 L131.21 200.52 L142.74 212.05 L142.83 212.14 L154.36 223.68 L126.51 251.53 L103.36 251.53 ZM88.49 266.66
						 L88.88 266.27 L112.7 265.35 L88.14 289.9 L88.14 267.01 L88.49 266.66 L88.23 266.66 L88.23 266.39 L87.87
						 266.75 L64.98 266.75 L89.54 242.19 L88.61 266.01 L88.23 266.39 L88.5 266.38 L88.49 266.66 ZM146.96 299.61
						 L122.86 275.51 L146.96 251.42 L146.96 299.61 ZM82.47 315.91 L110.11 288.27 L137.75 315.91 L82.47 315.91
						 ZM108.85 178.16 L121.04 190.35 L37.7 190.35 L25.51 178.16 L37.7 165.97 L121.04 165.97 L108.85 178.16 ZM103.36
						 104.8 L126.51 104.8 L154.36 132.65 L142.83 144.18 L142.74 144.27 L131.21 155.8 L103.36 127.95 L103.36 104.8
						 ZM88.23 89.93 L88.61 90.32 L89.54 114.14 L64.98 89.58 L87.87 89.58 L88.23 89.93 L88.23 89.67 L88.49 89.67
						 L88.14 89.31 L88.14 66.42 L112.7 90.98 L88.88 90.05 L88.49 89.67 L88.5 89.94 L88.23 89.93 ZM55.28 148.4
						 L79.37 124.3 L103.46 148.4 L55.28 148.4 ZM38.98 83.91 L66.61 111.55 L38.98 139.19 L38.98 83.91 ZM55.28 207.93
						 L103.46 207.93 L79.37 232.02 L55.28 207.93 ZM38.98 272.41 L38.98 217.14 L66.61 244.78 L38.98 272.41 ZM265.22
						 89.93 L264.94 89.94 L264.95 89.67 L264.57 90.05 L240.75 90.98 L265.31 66.42 L265.31 89.31 L264.95 89.67
						 L265.22 89.67 L265.22 89.93 L265.57 89.58 L288.46 89.58 L263.91 114.14 L264.83 90.32 L265.22 89.93 ZM210.7
						 144.27 L210.61 144.18 L199.08 132.65 L226.93 104.8 L250.09 104.8 L250.09 127.95 L222.24 155.8 L210.7 144.27
						 ZM298.17 148.4 L249.98 148.4 L274.07 124.3 L298.17 148.4 ZM314.47 83.91 L314.47 139.19 L286.83 111.55 L314.47
						 83.91 ZM176.72 110.29 L164.53 122.48 L164.53 39.14 L176.72 26.95 L188.91 39.14 L188.91 122.48 L176.72 110.29
						 ZM206.49 56.72 L230.58 80.81 L206.49 104.9 L206.49 56.72 ZM270.97 40.42 L243.34 68.05 L215.7 40.42 L270.97
						 40.42 ZM146.96 56.72 L146.96 104.9 L122.86 80.81 L146.96 56.72 ZM82.47 40.42 L137.75 40.42 L110.11 68.05
						 L82.47 40.42 Z" class="st1"/>
		</g>
	</g>
</svg>
