<?xml version="1.0" encoding="UTF-8" standalone="no"?>
<!DOCTYPE svg PUBLIC "-//W3C//DTD SVG 1.0//EN" "http://www.w3.org/TR/2001/REC-SVG-20010904/DTD/svg10.dtd">
<!-- Создано Microsoft Visio 11.0, Экспорт SVG, версия 1.0 wikilogo.svg Страница-1 -->
<svg xmlns="http://www.w3.org/2000/svg" xmlns:xlink="http://www.w3.org/1999/xlink" xmlns:ev="http://www.w3.org/2001/xml-events"
		xmlns:v="http://schemas.microsoft.com/visio/2003/SVGExtensions/" width="1.34525in" height="1.01543in"
		viewBox="0 0 96.858 73.1111" xml:space="preserve" color-interpolation-filters="sRGB" class="st4">
	<v:documentProperties v:langID="1033" v:metric="true" v:viewMarkup="false"/>

	<style type="text/css">
	<![CDATA[
		.st1 {fill:#3366ff;stroke:#000000;stroke-linecap:round;stroke-linejoin:round;stroke-width:0.24}
		.st2 {fill:#000080;stroke:#000000;stroke-linecap:round;stroke-linejoin:round;stroke-width:0.24}
		.st3 {fill:#ffcc00;stroke:#000000;stroke-linecap:round;stroke-linejoin:round;stroke-width:0.24}
		.st4 {fill:none;fill-rule:evenodd;font-size:12;overflow:visible;stroke-linecap:square;stroke-miterlimit:3}
	]]>
	</style>

	<g v:mID="0" v:index="1" v:groupContext="foregroundPage">
		<title>Страница-1</title>
		<v:pageProperties v:drawingScale="0.0393701" v:pageScale="0.0393701" v:drawingUnits="24" v:shadowOffsetX="8.50394"
				v:shadowOffsetY="-8.50394"/>
		<g id="shape3-1" v:mID="3" v:groupContext="shape" transform="translate(82.8497,-45.0564)">
			<title>Лист.3</title>
			<path d="M6.95 73.11 L6.95 72.97 L13.77 69.56 L6.95 66.16 L0 69.63 L6.95 73.11 Z" class="st1"/>
		</g>
		<g id="shape4-3" v:mID="4" v:groupContext="shape" transform="translate(82.8497,-38.1723)">
			<title>Лист.4</title>
			<path d="M6.88 66.23 L0 62.78 L0 69.67 L6.88 73.11 L6.88 66.23 Z" class="st2"/>
		</g>
		<g id="shape5-5" v:mID="5" v:groupContext="shape" transform="translate(75.9655,-34.5912)">
			<title>Лист.5</title>
			<path d="M6.88 66.23 L0 62.78 L0 69.67 L6.88 73.11 L6.88 66.23 Z" class="st2"/>
		</g>
		<g id="shape6-7" v:mID="6" v:groupContext="shape" transform="translate(69.0814,-38.1028)">
			<title>Лист.6</title>
			<path d="M6.95 73.11 L6.95 72.97 L13.77 69.56 L6.95 66.16 L0 69.63 L6.95 73.11 Z" class="st1"/>
		</g>
		<g id="shape7-9" v:mID="7" v:groupContext="shape" transform="translate(69.0814,-31.2186)">
			<title>Лист.7</title>
			<path d="M6.88 66.23 L0 62.78 L0 69.67 L6.88 73.11 L6.88 66.23 Z" class="st2"/>
		</g>
		<g id="shape8-11" v:mID="8" v:groupContext="shape" transform="translate(62.1973,-34.5912)">
			<title>Лист.8</title>
			<path d="M6.95 73.11 L6.95 72.97 L13.77 69.56 L6.95 66.16 L0 69.63 L6.95 73.11 Z" class="st1"/>
		</g>
		<g id="shape9-13" v:mID="9" v:groupContext="shape" transform="translate(62.1973,-27.707)">
			<title>Лист.9</title>
			<path d="M6.88 66.23 L0 62.78 L0 69.67 L6.88 73.11 L6.88 66.23 Z" class="st2"/>
		</g>
		<g id="shape10-15" v:mID="10" v:groupContext="shape" transform="translate(55.3131,-31.2882)">
			<title>Лист.10</title>
			<path d="M6.95 73.11 L6.95 72.97 L13.77 69.56 L6.95 66.16 L0 69.63 L6.95 73.11 Z" class="st1"/>
		</g>
		<g id="shape11-17" v:mID="11" v:groupContext="shape" transform="translate(55.3131,-24.404)">
			<title>Лист.11</title>
			<path d="M6.88 66.23 L0 62.78 L0 69.67 L6.88 73.11 L6.88 66.23 Z" class="st2"/>
		</g>
		<g id="shape12-19" v:mID="12" v:groupContext="shape" transform="translate(48.429,-20.962)">
			<title>Лист.12</title>
			<path d="M6.88 66.23 L0 62.78 L0 69.67 L6.88 73.11 L6.88 66.23 Z" class="st2"/>
		</g>
		<g id="shape13-21" v:mID="13" v:groupContext="shape" transform="translate(41.5448,-24.404)">
			<title>Лист.13</title>
			<path d="M6.95 73.11 L6.95 72.97 L13.77 69.56 L6.95 66.16 L0 69.63 L6.95 73.11 Z" class="st1"/>
		</g>
		<g id="shape14-23" v:mID="14" v:groupContext="shape" transform="translate(41.5448,-17.5199)">
			<title>Лист.14</title>
			<path d="M6.88 66.23 L0 62.78 L0 69.67 L6.88 73.11 L6.88 66.23 Z" class="st2"/>
		</g>
		<g id="shape15-25" v:mID="15" v:groupContext="shape" transform="translate(27.7766,-17.5894)">
			<title>Лист.15</title>
			<path d="M6.95 73.11 L6.95 72.97 L13.77 69.56 L6.95 66.16 L0 69.63 L6.95 73.11 Z" class="st1"/>
		</g>
		<g id="shape16-27" v:mID="16" v:groupContext="shape" transform="translate(27.7766,-10.7053)">
			<title>Лист.16</title>
			<path d="M6.88 66.23 L0 62.78 L0 69.67 L6.88 73.11 L6.88 66.23 Z" class="st2"/>
		</g>
		<g id="shape17-29" v:mID="17" v:groupContext="shape" transform="translate(20.8924,-14.0778)">
			<title>Лист.17</title>
			<path d="M6.95 73.11 L6.95 72.97 L13.77 69.56 L6.95 66.16 L0 69.63 L6.95 73.11 Z" class="st1"/>
		</g>
		<g id="shape18-31" v:mID="18" v:groupContext="shape" transform="translate(20.8924,-7.19368)">
			<title>Лист.18</title>
			<path d="M6.88 66.23 L0 62.78 L0 69.67 L6.88 73.11 L6.88 66.23 Z" class="st2"/>
		</g>
		<g id="shape19-33" v:mID="19" v:groupContext="shape" transform="translate(82.8497,-51.9406)">
			<title>Лист.19</title>
			<path d="M6.95 73.11 L6.95 72.97 L13.77 69.56 L6.95 66.16 L0 69.63 L6.95 73.11 Z" class="st1"/>
		</g>
		<g id="shape20-35" v:mID="20" v:groupContext="shape" transform="translate(82.8497,-45.0564)">
			<title>Лист.20</title>
			<path d="M6.88 66.23 L0 62.78 L0 69.67 L6.88 73.11 L6.88 66.23 Z" class="st2"/>
		</g>
		<g id="shape21-37" v:mID="21" v:groupContext="shape" transform="translate(82.8497,-58.8247)">
			<title>Лист.21</title>
			<path d="M6.95 73.11 L6.95 72.97 L13.77 69.56 L6.95 66.16 L0 69.63 L6.95 73.11 Z" class="st1"/>
		</g>
		<g id="shape22-39" v:mID="22" v:groupContext="shape" transform="translate(82.8497,-51.9406)">
			<title>Лист.22</title>
			<path d="M6.88 66.23 L0 62.78 L0 69.67 L6.88 73.11 L6.88 66.23 Z" class="st2"/>
		</g>
		<g id="shape23-41" v:mID="23" v:groupContext="shape" transform="translate(69.0814,-45.0564)">
			<title>Лист.23</title>
			<path d="M6.95 73.11 L6.95 72.97 L13.77 69.56 L6.95 66.16 L0 69.63 L6.95 73.11 Z" class="st1"/>
		</g>
		<g id="shape24-43" v:mID="24" v:groupContext="shape" transform="translate(69.0814,-38.1723)">
			<title>Лист.24</title>
			<path d="M6.88 66.23 L0 62.78 L0 69.67 L6.88 73.11 L6.88 66.23 Z" class="st2"/>
		</g>
		<g id="shape25-45" v:mID="25" v:groupContext="shape" transform="translate(62.1973,-41.5448)">
			<title>Лист.25</title>
			<path d="M6.95 73.11 L6.95 72.97 L13.77 69.56 L6.95 66.16 L0 69.63 L6.95 73.11 Z" class="st1"/>
		</g>
		<g id="shape26-47" v:mID="26" v:groupContext="shape" transform="translate(62.1973,-34.6607)">
			<title>Лист.26</title>
			<path d="M6.88 66.23 L0 62.78 L0 69.67 L6.88 73.11 L6.88 66.23 Z" class="st2"/>
		</g>
		<g id="shape27-49" v:mID="27" v:groupContext="shape" transform="translate(75.9655,-48.429)">
			<title>Лист.27</title>
			<path d="M6.88 66.23 L0 62.78 L0 69.67 L6.88 73.11 L6.88 66.23 Z" class="st2"/>
		</g>
		<g id="shape28-51" v:mID="28" v:groupContext="shape" transform="translate(69.0814,-51.9406)">
			<title>Лист.28</title>
			<path d="M6.95 73.11 L6.95 72.97 L13.77 69.56 L6.95 66.16 L0 69.63 L6.95 73.11 Z" class="st1"/>
		</g>
		<g id="shape29-53" v:mID="29" v:groupContext="shape" transform="translate(69.0814,-45.0564)">
			<title>Лист.29</title>
			<path d="M6.88 66.23 L0 62.78 L0 69.67 L6.88 73.11 L6.88 66.23 Z" class="st2"/>
		</g>
		<g id="shape30-55" v:mID="30" v:groupContext="shape" transform="translate(62.1973,-41.5448)">
			<title>Лист.30</title>
			<path d="M6.88 66.23 L0 62.78 L0 69.67 L6.88 73.11 L6.88 66.23 Z" class="st2"/>
		</g>
		<g id="shape31-57" v:mID="31" v:groupContext="shape" transform="translate(55.3131,-38.1723)">
			<title>Лист.31</title>
			<path d="M6.95 73.11 L6.95 72.97 L13.77 69.56 L6.95 66.16 L0 69.63 L6.95 73.11 Z" class="st1"/>
		</g>
		<g id="shape32-59" v:mID="32" v:groupContext="shape" transform="translate(55.3131,-31.2882)">
			<title>Лист.32</title>
			<path d="M6.88 66.23 L0 62.78 L0 69.67 L6.88 73.11 L6.88 66.23 Z" class="st2"/>
		</g>
		<g id="shape33-61" v:mID="33" v:groupContext="shape" transform="translate(55.3131,-45.0564)">
			<title>Лист.33</title>
			<path d="M6.95 73.11 L6.95 72.97 L13.77 69.56 L6.95 66.16 L0 69.63 L6.95 73.11 Z" class="st1"/>
		</g>
		<g id="shape34-63" v:mID="34" v:groupContext="shape" transform="translate(55.3131,-38.1723)">
			<title>Лист.34</title>
			<path d="M6.88 66.23 L0 62.78 L0 69.67 L6.88 73.11 L6.88 66.23 Z" class="st2"/>
		</g>
		<g id="shape35-65" v:mID="35" v:groupContext="shape" transform="translate(48.429,-27.8461)">
			<title>Лист.35</title>
			<path d="M6.88 66.23 L0 62.78 L0 69.67 L6.88 73.11 L6.88 66.23 Z" class="st2"/>
		</g>
		<g id="shape36-67" v:mID="36" v:groupContext="shape" transform="translate(41.5448,-31.2882)">
			<title>Лист.36</title>
			<path d="M6.95 73.11 L6.95 72.97 L13.77 69.56 L6.95 66.16 L0 69.63 L6.95 73.11 Z" class="st1"/>
		</g>
		<g id="shape37-69" v:mID="37" v:groupContext="shape" transform="translate(41.5448,-24.404)">
			<title>Лист.37</title>
			<path d="M6.88 66.23 L0 62.78 L0 69.67 L6.88 73.11 L6.88 66.23 Z" class="st2"/>
		</g>
		<g id="shape38-71" v:mID="38" v:groupContext="shape" transform="translate(34.6607,-20.962)">
			<title>Лист.38</title>
			<path d="M6.88 66.23 L0 62.78 L0 69.67 L6.88 73.11 L6.88 66.23 Z" class="st2"/>
		</g>
		<g id="shape39-73" v:mID="39" v:groupContext="shape" transform="translate(27.7766,-24.4736)">
			<title>Лист.39</title>
			<path d="M6.95 73.11 L6.95 72.97 L13.77 69.56 L6.95 66.16 L0 69.63 L6.95 73.11 Z" class="st1"/>
		</g>
		<g id="shape40-75" v:mID="40" v:groupContext="shape" transform="translate(27.7766,-17.5894)">
			<title>Лист.40</title>
			<path d="M6.88 66.23 L0 62.78 L0 69.67 L6.88 73.11 L6.88 66.23 Z" class="st2"/>
		</g>
		<g id="shape41-77" v:mID="41" v:groupContext="shape" transform="translate(20.8924,-14.0778)">
			<title>Лист.41</title>
			<path d="M6.88 66.23 L0 62.78 L0 69.67 L6.88 73.11 L6.88 66.23 Z" class="st2"/>
		</g>
		<g id="shape42-79" v:mID="42" v:groupContext="shape" transform="translate(48.429,-34.7998)">
			<title>Лист.42</title>
			<path d="M6.88 66.23 L0 62.78 L0 69.67 L6.88 73.11 L6.88 66.23 Z" class="st2"/>
		</g>
		<g id="shape43-81" v:mID="43" v:groupContext="shape" transform="translate(41.5448,-38.2418)">
			<title>Лист.43</title>
			<path d="M6.95 73.11 L6.95 72.97 L13.77 69.56 L6.95 66.16 L0 69.63 L6.95 73.11 Z" class="st1"/>
		</g>
		<g id="shape44-83" v:mID="44" v:groupContext="shape" transform="translate(41.5448,-31.3577)">
			<title>Лист.44</title>
			<path d="M6.88 66.23 L0 62.78 L0 69.67 L6.88 73.11 L6.88 66.23 Z" class="st2"/>
		</g>
		<g id="shape45-85" v:mID="45" v:groupContext="shape" transform="translate(34.6607,-27.9156)">
			<title>Лист.45</title>
			<path d="M6.88 66.23 L0 62.78 L0 69.67 L6.88 73.11 L6.88 66.23 Z" class="st2"/>
		</g>
		<g id="shape46-87" v:mID="46" v:groupContext="shape" transform="translate(27.7766,-31.4272)">
			<title>Лист.46</title>
			<path d="M6.95 73.11 L6.95 72.97 L13.77 69.56 L6.95 66.16 L0 69.63 L6.95 73.11 Z" class="st1"/>
		</g>
		<g id="shape47-89" v:mID="47" v:groupContext="shape" transform="translate(27.7766,-24.5431)">
			<title>Лист.47</title>
			<path d="M6.88 66.23 L0 62.78 L0 69.67 L6.88 73.11 L6.88 66.23 Z" class="st2"/>
		</g>
		<g id="shape48-91" v:mID="48" v:groupContext="shape" transform="translate(14.0083,-10.5662)">
			<title>Лист.48</title>
			<path d="M6.95 73.11 L6.95 72.97 L13.77 69.56 L6.95 66.16 L0 69.63 L6.95 73.11 Z" class="st1"/>
		</g>
		<g id="shape49-93" v:mID="49" v:groupContext="shape" transform="translate(14.0083,-3.68207)">
			<title>Лист.49</title>
			<path d="M6.88 66.23 L0 62.78 L0 69.67 L6.88 73.11 L6.88 66.23 Z" class="st2"/>
		</g>
		<g id="shape50-95" v:mID="50" v:groupContext="shape" transform="translate(14.0083,-17.4503)">
			<title>Лист.50</title>
			<path d="M6.95 73.11 L6.95 72.97 L13.77 69.56 L6.95 66.16 L0 69.63 L6.95 73.11 Z" class="st1"/>
		</g>
		<g id="shape51-97" v:mID="51" v:groupContext="shape" transform="translate(14.0083,-10.5662)">
			<title>Лист.51</title>
			<path d="M6.88 66.23 L0 62.78 L0 69.67 L6.88 73.11 L6.88 66.23 Z" class="st2"/>
		</g>
		<g id="shape52-99" v:mID="52" v:groupContext="shape" transform="translate(7.12414,-7.12414)">
			<title>Лист.52</title>
			<path d="M6.95 73.11 L6.95 72.97 L13.77 69.56 L6.95 66.16 L0 69.63 L6.95 73.11 Z" class="st1"/>
		</g>
		<g id="shape53-101" v:mID="53" v:groupContext="shape" transform="translate(7.12414,-0.24)">
			<title>Лист.53</title>
			<path d="M6.88 66.23 L0 62.78 L0 69.67 L6.88 73.11 L6.88 66.23 Z" class="st2"/>
		</g>
		<g id="shape54-103" v:mID="54" v:groupContext="shape" transform="translate(7.12414,-7.12414)">
			<title>Лист.54</title>
			<path d="M6.88 66.23 L0 62.78 L0 69.67 L6.88 73.11 L6.88 66.23 Z" class="st2"/>
		</g>
		<g id="shape55-105" v:mID="55" v:groupContext="shape" transform="translate(7.12414,-14.0083)">
			<title>Лист.55</title>
			<path d="M6.88 66.23 L0 62.78 L0 69.67 L6.88 73.11 L6.88 66.23 Z" class="st2"/>
		</g>
		<g id="shape56-107" v:mID="56" v:groupContext="shape" transform="translate(0.24,-3.68207)">
			<title>Лист.56</title>
			<path d="M6.95 73.11 L6.95 72.97 L13.77 69.56 L6.95 66.16 L0 69.63 L6.95 73.11 Z" class="st1"/>
		</g>
		<g id="shape57-109" v:mID="57" v:groupContext="shape" transform="translate(0.24,-10.5662)">
			<title>Лист.57</title>
			<path d="M6.95 73.11 L6.95 72.97 L13.77 69.56 L6.95 66.16 L0 69.63 L6.95 73.11 Z" class="st1"/>
		</g>
		<g id="shape58-111" v:mID="58" v:groupContext="shape" transform="translate(0.24,-3.68207)">
			<title>Лист.58</title>
			<path d="M6.88 66.23 L0 62.78 L0 69.67 L6.88 73.11 L6.88 66.23 Z" class="st2"/>
		</g>
		<g id="shape59-113" v:mID="59" v:groupContext="shape" transform="translate(0.24,-17.4503)">
			<title>Лист.59</title>
			<path d="M6.95 73.11 L6.95 72.97 L13.77 69.56 L6.95 66.16 L0 69.63 L6.95 73.11 Z" class="st1"/>
		</g>
		<g id="shape60-115" v:mID="60" v:groupContext="shape" transform="translate(0.24,-10.5662)">
			<title>Лист.60</title>
			<path d="M6.88 66.23 L0 62.78 L0 69.67 L6.88 73.11 L6.88 66.23 Z" class="st2"/>
		</g>
		<g id="shape61-117" v:mID="61" v:groupContext="shape" transform="translate(20.8924,-41.5448)">
			<title>Лист.61</title>
			<path d="M6.95 73.11 L6.95 72.97 L13.77 69.56 L6.95 66.16 L0 69.63 L6.95 73.11 Z" class="st1"/>
		</g>
		<g id="shape62-119" v:mID="62" v:groupContext="shape" transform="translate(27.7766,-45.126)">
			<title>Лист.62</title>
			<path d="M6.88 66.23 L0 62.78 L0 69.67 L6.88 73.11 L6.88 66.23 Z" class="st2"/>
		</g>
		<g id="shape63-121" v:mID="63" v:groupContext="shape" transform="translate(20.8924,-48.4985)">
			<title>Лист.63</title>
			<path d="M6.95 73.11 L6.95 72.97 L13.77 69.56 L6.95 66.16 L0 69.63 L6.95 73.11 Z" class="st1"/>
		</g>
		<g id="shape64-123" v:mID="64" v:groupContext="shape" transform="translate(7.12414,-34.5912)">
			<title>Лист.64</title>
			<path d="M6.88 66.23 L0 62.78 L0 69.67 L6.88 73.11 L6.88 66.23 Z" class="st2"/>
		</g>
		<g id="shape65-125" v:mID="65" v:groupContext="shape" transform="translate(0.24,-31.1491)">
			<title>Лист.65</title>
			<path d="M6.95 73.11 L6.95 72.97 L13.77 69.56 L6.95 66.16 L0 69.63 L6.95 73.11 Z" class="st1"/>
		</g>
		<g id="shape66-127" v:mID="66" v:groupContext="shape" transform="translate(0.24,-38.0332)">
			<title>Лист.66</title>
			<path d="M6.95 73.11 L6.95 72.97 L13.77 69.56 L6.95 66.16 L0 69.63 L6.95 73.11 Z" class="st1"/>
		</g>
		<g id="shape67-129" v:mID="67" v:groupContext="shape" transform="translate(27.7766,-52.1492)">
			<title>Лист.67</title>
			<path d="M6.88 66.23 L0 62.78 L0 69.67 L6.88 73.11 L6.88 66.23 Z" class="st2"/>
		</g>
		<g id="shape68-131" v:mID="68" v:groupContext="shape" transform="translate(20.8924,-48.6376)">
			<title>Лист.68</title>
			<path d="M6.88 66.23 L0 62.78 L0 69.67 L6.88 73.11 L6.88 66.23 Z" class="st2"/>
		</g>
		<g id="shape69-133" v:mID="69" v:groupContext="shape" transform="translate(7.12414,-41.6144)">
			<title>Лист.69</title>
			<path d="M6.88 66.23 L0 62.78 L0 69.67 L6.88 73.11 L6.88 66.23 Z" class="st2"/>
		</g>
		<g id="shape70-135" v:mID="70" v:groupContext="shape" transform="translate(89.7338,-38.1723)">
			<title>Лист.70</title>
			<path d="M0 66.36 L0 73.11 L6.88 69.67 L6.88 62.78 L0 66.23 L0 66.36 Z" class="st3"/>
		</g>
		<g id="shape71-137" v:mID="71" v:groupContext="shape" transform="translate(75.9655,-31.2186)">
			<title>Лист.71</title>
			<path d="M0 66.36 L0 73.11 L6.88 69.67 L6.88 62.78 L0 66.23 L0 66.36 Z" class="st3"/>
		</g>
		<g id="shape72-139" v:mID="72" v:groupContext="shape" transform="translate(62.1973,-24.404)">
			<title>Лист.72</title>
			<path d="M0 66.36 L0 73.11 L6.88 69.67 L6.88 62.78 L0 66.23 L0 66.36 Z" class="st3"/>
		</g>
		<g id="shape73-141" v:mID="73" v:groupContext="shape" transform="translate(48.429,-17.5199)">
			<title>Лист.73</title>
			<path d="M0 66.36 L0 73.11 L6.88 69.67 L6.88 62.78 L0 66.23 L0 66.36 Z" class="st3"/>
		</g>
		<g id="shape74-143" v:mID="74" v:groupContext="shape" transform="translate(27.7766,-7.19368)">
			<title>Лист.74</title>
			<path d="M0 66.36 L0 73.11 L6.88 69.67 L6.88 62.78 L0 66.23 L0 66.36 Z" class="st3"/>
		</g>
		<g id="shape75-145" v:mID="75" v:groupContext="shape" transform="translate(89.7338,-45.0564)">
			<title>Лист.75</title>
			<path d="M0 66.36 L0 73.11 L6.88 69.67 L6.88 62.78 L0 66.23 L0 66.36 Z" class="st3"/>
		</g>
		<g id="shape76-147" v:mID="76" v:groupContext="shape" transform="translate(89.7338,-51.9406)">
			<title>Лист.76</title>
			<path d="M0 66.36 L0 73.11 L6.88 69.67 L6.88 62.78 L0 66.23 L0 66.36 Z" class="st3"/>
		</g>
		<g id="shape77-149" v:mID="77" v:groupContext="shape" transform="translate(69.0814,-34.6607)">
			<title>Лист.77</title>
			<path d="M0 66.36 L0 73.11 L6.88 69.67 L6.88 62.78 L0 66.23 L0 66.36 Z" class="st3"/>
		</g>
		<g id="shape78-151" v:mID="78" v:groupContext="shape" transform="translate(75.9655,-45.0564)">
			<title>Лист.78</title>
			<path d="M0 66.36 L0 73.11 L6.88 69.67 L6.88 62.78 L0 66.23 L0 66.36 Z" class="st3"/>
		</g>
		<g id="shape79-153" v:mID="79" v:groupContext="shape" transform="translate(62.1973,-31.2882)">
			<title>Лист.79</title>
			<path d="M0 66.36 L0 73.11 L6.88 69.67 L6.88 62.78 L0 66.23 L0 66.36 Z" class="st3"/>
		</g>
		<g id="shape80-155" v:mID="80" v:groupContext="shape" transform="translate(62.1973,-38.1723)">
			<title>Лист.80</title>
			<path d="M0 66.36 L0 73.11 L6.88 69.67 L6.88 62.78 L0 66.23 L0 66.36 Z" class="st3"/>
		</g>
		<g id="shape81-157" v:mID="81" v:groupContext="shape" transform="translate(48.429,-24.404)">
			<title>Лист.81</title>
			<path d="M0 66.36 L0 73.11 L6.88 69.67 L6.88 62.78 L0 66.23 L0 66.36 Z" class="st3"/>
		</g>
		<g id="shape82-159" v:mID="82" v:groupContext="shape" transform="translate(34.6607,-17.5894)">
			<title>Лист.82</title>
			<path d="M0 66.36 L0 73.11 L6.88 69.67 L6.88 62.78 L0 66.23 L0 66.36 Z" class="st3"/>
		</g>
		<g id="shape83-161" v:mID="83" v:groupContext="shape" transform="translate(48.429,-31.3577)">
			<title>Лист.83</title>
			<path d="M0 66.36 L0 73.11 L6.88 69.67 L6.88 62.78 L0 66.23 L0 66.36 Z" class="st3"/>
		</g>
		<g id="shape84-163" v:mID="84" v:groupContext="shape" transform="translate(34.6607,-24.5431)">
			<title>Лист.84</title>
			<path d="M0 66.36 L0 73.11 L6.88 69.67 L6.88 62.78 L0 66.23 L0 66.36 Z" class="st3"/>
		</g>
		<g id="shape85-165" v:mID="85" v:groupContext="shape" transform="translate(20.8924,-10.5662)">
			<title>Лист.85</title>
			<path d="M0 66.36 L0 73.11 L6.88 69.67 L6.88 62.78 L0 66.23 L0 66.36 Z" class="st3"/>
		</g>
		<g id="shape86-167" v:mID="86" v:groupContext="shape" transform="translate(14.0083,-0.24)">
			<title>Лист.86</title>
			<path d="M0 66.36 L0 73.11 L6.88 69.67 L6.88 62.78 L0 66.23 L0 66.36 Z" class="st3"/>
		</g>
		<g id="shape87-169" v:mID="87" v:groupContext="shape" transform="translate(7.12414,-3.68207)">
			<title>Лист.87</title>
			<path d="M0 66.36 L0 73.11 L6.88 69.67 L6.88 62.78 L0 66.23 L0 66.36 Z" class="st3"/>
		</g>
		<g id="shape88-171" v:mID="88" v:groupContext="shape" transform="translate(7.12414,-10.5662)">
			<title>Лист.88</title>
			<path d="M0 66.36 L0 73.11 L6.88 69.67 L6.88 62.78 L0 66.23 L0 66.36 Z" class="st3"/>
		</g>
		<g id="shape90-173" v:mID="90" v:groupContext="shape" transform="translate(20.8924,-41.5448)">
			<title>Лист.90</title>
			<path d="M6.88 66.23 L0 62.78 L0 69.67 L6.88 73.11 L6.88 66.23 Z" class="st2"/>
		</g>
		<g id="shape91-175" v:mID="91" v:groupContext="shape" transform="translate(20.8924,-48.4985)">
			<title>Лист.91</title>
			<path d="M6.88 66.23 L0 62.78 L0 69.67 L6.88 73.11 L6.88 66.23 Z" class="st2"/>
		</g>
		<g id="shape92-177" v:mID="92" v:groupContext="shape" transform="translate(0.24,-31.1491)">
			<title>Лист.92</title>
			<path d="M6.88 66.23 L0 62.78 L0 69.67 L6.88 73.11 L6.88 66.23 Z" class="st2"/>
		</g>
		<g id="shape93-179" v:mID="93" v:groupContext="shape" transform="translate(0.24,-38.0332)">
			<title>Лист.93</title>
			<path d="M6.88 66.23 L0 62.78 L0 69.67 L6.88 73.11 L6.88 66.23 Z" class="st2"/>
		</g>
		<g id="shape94-181" v:mID="94" v:groupContext="shape" transform="translate(27.7766,-65.9175)">
			<title>Лист.94</title>
			<path d="M6.95 73.11 L6.95 72.97 L13.77 69.56 L6.95 66.16 L0 69.63 L6.95 73.11 Z" class="st1"/>
		</g>
		<g id="shape95-183" v:mID="95" v:groupContext="shape" transform="translate(20.8924,-62.4059)">
			<title>Лист.95</title>
			<path d="M6.95 73.11 L6.95 72.97 L13.77 69.56 L6.95 66.16 L0 69.63 L6.95 73.11 Z" class="st1"/>
		</g>
		<g id="shape96-185" v:mID="96" v:groupContext="shape" transform="translate(14.0083,-58.8247)">
			<title>Лист.96</title>
			<path d="M6.95 73.11 L6.95 72.97 L13.77 69.56 L6.95 66.16 L0 69.63 L6.95 73.11 Z" class="st1"/>
		</g>
		<g id="shape97-187" v:mID="97" v:groupContext="shape" transform="translate(14.0083,-51.9406)">
			<title>Лист.97</title>
			<path d="M6.88 66.23 L0 62.78 L0 69.67 L6.88 73.11 L6.88 66.23 Z" class="st2"/>
		</g>
		<g id="shape98-189" v:mID="98" v:groupContext="shape" transform="translate(0.24,-51.9406)">
			<title>Лист.98</title>
			<path d="M6.95 73.11 L6.95 72.97 L13.77 69.56 L6.95 66.16 L0 69.63 L6.95 73.11 Z" class="st1"/>
		</g>
		<g id="shape99-191" v:mID="99" v:groupContext="shape" transform="translate(0.24,-45.0564)">
			<title>Лист.99</title>
			<path d="M6.88 66.23 L0 62.78 L0 69.67 L6.88 73.11 L6.88 66.23 Z" class="st2"/>
		</g>
		<g id="shape100-193" v:mID="100" v:groupContext="shape" transform="translate(27.7766,-41.5448)">
			<title>Лист.100</title>
			<path d="M0 66.36 L0 73.11 L6.88 69.67 L6.88 62.78 L0 66.23 L0 66.36 Z" class="st3"/>
		</g>
		<g id="shape101-195" v:mID="101" v:groupContext="shape" transform="translate(27.7766,-48.4985)">
			<title>Лист.101</title>
			<path d="M0 66.36 L0 73.11 L6.88 69.67 L6.88 62.78 L0 66.23 L0 66.36 Z" class="st3"/>
		</g>
		<g id="shape102-197" v:mID="102" v:groupContext="shape" transform="translate(7.12414,-31.1491)">
			<title>Лист.102</title>
			<path d="M0 66.36 L0 73.11 L6.88 69.67 L6.88 62.78 L0 66.23 L0 66.36 Z" class="st3"/>
		</g>
		<g id="shape103-199" v:mID="103" v:groupContext="shape" transform="translate(7.12414,-38.0332)">
			<title>Лист.103</title>
			<path d="M0 66.36 L0 73.11 L6.88 69.67 L6.88 62.78 L0 66.23 L0 66.36 Z" class="st3"/>
		</g>
		<g id="shape104-201" v:mID="104" v:groupContext="shape" transform="translate(34.6607,-59.0333)">
			<title>Лист.104</title>
			<path d="M0 66.36 L0 73.11 L6.88 69.67 L6.88 62.78 L0 66.23 L0 66.36 Z" class="st3"/>
		</g>
		<g id="shape105-203" v:mID="105" v:groupContext="shape" transform="translate(27.7766,-55.5217)">
			<title>Лист.105</title>
			<path d="M0 66.36 L0 73.11 L6.88 69.67 L6.88 62.78 L0 66.23 L0 66.36 Z" class="st3"/>
		</g>
		<g id="shape106-205" v:mID="106" v:groupContext="shape" transform="translate(20.8924,-51.9406)">
			<title>Лист.106</title>
			<path d="M0 66.36 L0 73.11 L6.88 69.67 L6.88 62.78 L0 66.23 L0 66.36 Z" class="st3"/>
		</g>
		<g id="shape107-207" v:mID="107" v:groupContext="shape" transform="translate(7.12414,-45.0564)">
			<title>Лист.107</title>
			<path d="M0 66.36 L0 73.11 L6.88 69.67 L6.88 62.78 L0 66.23 L0 66.36 Z" class="st3"/>
		</g>
	</g>
</svg>
